<?xml version="1.0" encoding="utf-8"?>
<!-- Generator: Adobe Illustrator 22.0.1, SVG Export Plug-In . SVG Version: 6.00 Build 0)  -->
<svg version="1.1" id="Layer_1" xmlns="http://www.w3.org/2000/svg" xmlns:xlink="http://www.w3.org/1999/xlink" x="0px" y="0px"
	 viewBox="0 0 482 153.4" style="enable-background:new 0 0 482 153.4;" xml:space="preserve">
<style type="text/css">
	.st0{fill:#0D6298;}
	.st1{fill:#095F97;}
	.st2{fill:#0B6097;}
	.st3{fill:#06ABE3;}
	.st4{fill:#0F6399;}
	.st5{fill:#12659A;}
	.st6{fill:#14669B;}
	.st7{fill:#106499;}
	.st8{fill:#106399;}
	.st9{fill:#0B6197;}
	.st10{fill:#0C6198;}
	.st11{fill:#0EADA0;}
	.st12{fill:#8BC541;}
	.st13{fill:#14AEE3;}
	.st14{fill:#11ACE2;}
	.st15{fill:#11669B;}
	.st16{fill:#12AEE3;}
	.st17{fill:#11659A;}
	.st18{fill:#0F6499;}
	.st19{fill:#0EAFE5;}
	.st20{fill:#0CADE4;}
	.st21{fill:#0EAEE5;}
</style>
<g>
	<path class="st0" d="M480,100.4c-14.6-0.1-29.3-0.1-43.9-0.2c-4.7,0-9.3,0-14,0c-1.8,0-3.2,0-3.1-2.6c0.1-2.6,1.6-2.4,3.4-2.4
		c2.5,0,5-0.1,7.5,0c2.4,0.1,3.2-0.8,3.2-3.2c-0.1-5.2,0.1-10.3-0.1-15.5c-0.1-2.6,0.9-3.7,3.5-3.3c0.7,0.1,1.3,0,2,0
		c3.4,0.1,3.4,0.1,3.4,3.7c0,5.3,0,10.7,0,16c0,1-0.1,2.1,1.3,2.2c1,0.1,2,0.3,2.8-0.5c0.8-0.8,0.6-1.8,0.6-2.8c0-5,0-10,0-15
		c0-3.6,0.1-3.6,3.5-3.6c0.5,0,1,0,1.5,0c3.7,0.1,3.8,0.1,3.8,3.8c0,5,0,10,0,15c0,1.5-0.1,3.1,2.1,3.2c1.7,0,3.3,0.1,3.7-2.3
		c0.2-1.8,0.9-3.5,0.9-5.4c0-8.3,0-16.6,0.1-25c0.1-2.6-0.7-3.4-3.4-3.4c-10,0.1-20,0.1-30,0c-2.7,0-3.1-0.7-2.8-3.2
		c0.2-1.3,0.8-1.7,1.9-1.7c1.7,0,3.3,0,5,0c11.8,0,23.6,0,35.5,0c4.2,0,4.1-0.1,4,4.1c-0.2,10,0.4,20-0.5,29.9
		c-0.2,2.2-2.5,4.8-0.3,6.4c1.5,1,4.2,0.4,6.3,0.5c0.7,0,1.3,0.1,2,0.1C480,97,480,98.7,480,100.4z"/>
	<path class="st1" d="M65.1,51.3c4.7,5.2,9.6,10.1,17.3,12.4c-4.7,4.9-4.7,10.6-4.6,16.5c0.1,10.8,0.2,21.6,0,32.4
		c-0.2,12.1-4.7,22.2-15,29.3c-5.2,3.6-11,5.8-17.1,7.6c-2.3,0.7-4.9,0.1-6.8,2c-1.3,0-2.7,0-4,0c0.3-0.6,0.5-1.2,0.8-1.8
		c8.2-2.2,15.5-6.1,20.9-12.6c6-7.3,8.3-16,8.3-25.3C65,91.5,65.1,71.4,65.1,51.3z"/>
	<path class="st2" d="M340,80.9c0,8,0,16,0,24c0,4.5,0,4.5-4.7,4.5c-0.7,0-1.3-0.1-2,0c-1.8,0.1-2.2-0.8-2.2-2.4c0.1-3.5,0-7,0-10.5
		c0-7.8,0-15.7,0-23.5c0-1.6,0.1-2.9-2.2-3c-2.1,0-2.9,0.7-2.9,2.9c0.1,10.7,0.1,21.3,0,32c0,1.4,0.6,3-0.7,4.2
		c-0.5,0.4-6.9,0.5-7.4,0.1c-0.8-0.6-0.7-1.4-0.7-2.2c0-3.3-0.1-6.7,0-10c0.1-2-0.8-2.6-2.7-2.5c-5.2,0.1-10.3,0-15.5,0
		c-1.5,0-3,0-4.5-0.1c-3.8-0.4-5.6-2-5.6-5.6c-0.1-10.7,0-21.3-0.1-32c0-1.7,0.7-2.4,2.4-2.4c5.8,0,11.7,0.1,17.5,0
		c1.9,0,2.2,0.9,2.2,2.5c0,1.5-0.2,2.5-2.1,2.5c-2.5-0.1-5,0-7.5,0c-1.6,0-2.4,0.4-2.4,2.2c0.1,8.7,0.1,17.3,0,26
		c0,1.9,1,2.2,2.5,2.2c4.2,0,8.3-0.1,12.5,0c2.6,0.1,3.4-0.7,3.4-3.4c-0.1-9.5-0.1-19-0.1-28.5c0-6,0-5.9,6.1-5.6
		c2.3,0.1,2.9,1,2.8,3c-0.1,2.2,0,4.3,0,6.5c0,2,0,3.6,2.8,3.6c2.7,0,2.3-1.7,2.3-3.3c0-2.3,0.1-4.7,0-7c-0.1-2.3,0.9-2.8,2.9-2.8
		c7.1,0.1,6-0.3,6,5.8C340.1,65.6,340,73.3,340,80.9z"/>
	<path class="st3" d="M65.1,51.3c0,20.1-0.1,40.2-0.1,60.4c0,9.3-2.3,18-8.3,25.3c-5.4,6.6-12.7,10.4-20.9,12.6
		c-1-1,0.1-1.4,0.7-1.8c9-5.8,13.4-14.1,14.8-24.6c0.7-4.8,0.7-9.6,0.7-14.4C52,98,52,87.2,52,76.4c0-5.4-0.9-7.9-4.5-12.6
		c2-1,4-2,6-3c4-1.9,7-4.9,9.7-8.4C63.6,51.9,63.7,50.5,65.1,51.3z"/>
	<path class="st4" d="M381.7,61.1c0.8,1.2,1,1.6,1.3,2c6.4,6.9,3.2,14.9-3.1,18.5c-6.6,3.8-13.3,3.7-19.7-0.5
		c-6.6-4.4-7.6-11.3-2.7-17.5c0.4-0.5,0.8-0.9,1.5-1.7c-1.6-1-3.1-0.7-4.5-0.6c-2.1,0.2-2.6-0.8-2.6-2.6c0-1.8,0.9-2.3,2.5-2.3
		c2.7,0,5.3-0.1,8,0c2.2,0.1,2.8-0.7,2.9-2.9c0.1-3.9,0.3-3.9,4.1-3.9c0.5,0,1,0,1.5,0c4.3,0,4.5,0,4.7,4.3c0.1,2,1,2.5,2.8,2.5
		c2.8-0.1,5.7,0,8.5,0c2,0,1.9,1.3,2,2.7c0,1.4-0.4,2.2-2,2.1C385.5,61,384,61.1,381.7,61.1z M376.9,71c0-4.5-3.2-8.6-6.6-8.5
		c-3.3,0.2-6.2,4.1-6.2,8.4c-0.1,4.6,2.9,8.6,6.4,8.6C374,79.5,377,75.6,376.9,71z"/>
	<path class="st5" d="M236.2,82.3c-5.4,0.3-9.7-1.4-13.5-4.3c-6.1-4.9-6.8-13.6-1.6-19.4c7.3-8.1,21-8.2,28.5-0.2
		c5.4,5.8,4.7,14.8-1.6,19.8C244.4,80.9,240.4,82.6,236.2,82.3z M243.1,67.5c0-1,0.1-1.9,0-2.7c-0.5-3.6-3.7-7.2-6.8-7.6
		c-3.3-0.5-6.7,2-8,6.1c-1.2,3.9-0.9,7.9,1.6,11.3c2.9,4,8.4,3.9,11.2-0.3C242.6,72.2,243.5,70,243.1,67.5z"/>
	<path class="st6" d="M183.7,85.3c4.9-0.2,9.4,1.1,13.4,4c7.3,5.4,7.1,14.7-0.4,20c-8.3,5.9-20.7,5.2-27.5-1.4
		c-5.7-5.5-5.5-13,0.6-18.1C173.8,86.5,178.5,85.2,183.7,85.3z M175,99.5c0.1,5.4,3.9,9.3,8.9,9.2c5.2-0.2,8.8-4,8.7-9.4
		c0-5.4-3.7-9.3-8.8-9.3C178.2,90,174.9,93.5,175,99.5z"/>
	<path class="st7" d="M169.5,71.8c-4.2,5.7-9.5,8.8-15.9,10.1c-1.1,0.2-2.7,0.9-3-0.5c-0.4-1.6-0.9-3.7,1.2-4.8
		c1.5-0.7,3.1-1.3,4.4-2.2c4.4-2.9,6.6-7.3,7.7-12.3c0.5-2.2-0.4-3-2.6-2.9c-2.3,0.1-4.7-0.1-7,0.1c-1.7,0.1-2.4-0.5-2.3-2.3
		c0-1.8,0.3-2.8,2.4-2.7c5,0.1,10,0,15,0c4.8,0,9.6,0.1,14.5,0c1.9,0,2.6,0.6,2.6,2.6c0,2.1-1,2.5-2.8,2.4c-2.3-0.1-4.7,0-7,0
		c-2.2-0.1-2.3,1.1-2.1,2.8c0.8,6.7,4.6,11.1,10.5,14c1,0.5,2.5,0.2,2.6,1.8c0.1,1.3,0.6,2.8-0.3,3.8c-0.9,1-2.1,0.1-3.2-0.1
		C178.1,80.5,173.4,77.1,169.5,71.8z"/>
	<path class="st1" d="M261.1,73.4c0-6,0.1-12,0-18c0-2.3,0.5-3.2,3-3.3c7.1-0.1,7.1-0.3,7,6.6c0,0.5,0,1,0,1.5c0,4.8,0,4.8,4.8,5
		c1.2,0.1,2.8-0.7,3.2,1.3c0.5,2.2-0.3,3.4-2.6,3.5c-5.4,0.4-5.4,0.4-5.4,5.7c0,5.3-0.1,10.6,0,16c0,1.9-0.5,2.8-2.5,2.6
		c-0.2,0-0.3,0-0.5,0c-8.7-0.1-6.8,0.9-7-6.6C261,83,261.1,78.2,261.1,73.4z"/>
	<path class="st8" d="M382.3,89.6c6.7,0,13.3,0.1,20,0c2.2,0,2.9,0.7,2.9,2.9c-0.1,4.7-0.1,9.3,0,14c0,2-0.4,3-2.7,3.1
		c-7.3,0.4-7.2,0.5-7.3-6.9c0-2.6,1.3-5.8-0.8-7.6c-1.7-1.5-4.8-0.5-7.3-0.5c-8.3-0.1-16.6,0-25,0c-1.3,0-2.7,0.4-3.1-1.6
		c-0.4-2.3,0.3-3.3,2.8-3.3C368.6,89.5,375.4,89.6,382.3,89.6z"/>
	<path class="st4" d="M252.1,109.4c-5.3,0-10.6,0.1-16,0c-5.8-0.1-7.7-2.2-7.9-7.9c-0.1-3.2,0.1-6.3,0-9.5c-0.1-2,0.8-2.5,2.6-2.6
		c7.7-0.4,7.7-0.5,7.7,7.4c0,7.7,0,7.7,7.5,7.7c7.7,0,15.3,0,23,0c1.5,0,3-0.2,3,2.2c0,2.3-0.9,2.8-3,2.8
		C263.4,109.3,257.8,109.4,252.1,109.4z"/>
	<path class="st9" d="M193.1,68c0-4.3,0.1-8.7,0-13c-0.1-2.2,0.8-3,2.9-2.8c0.2,0,0.3,0,0.5,0c7.7,0.1,6.4-0.6,6.5,6.2
		c0,0.5,0,1,0,1.5c0,5,0,5.1,5,5.3c1.6,0.1,3-0.1,3,2.2c0,1.8-0.4,2.7-2.5,2.8c-5.5,0.3-5.5,0.4-5.5,6c0,0.3,0,0.7,0,1
		c0,7.6,0,7.5-7.6,7c-1.7-0.1-2.4-0.5-2.3-2.3C193.2,77.3,193.1,72.7,193.1,68z"/>
	<path class="st10" d="M395.1,68.5c0-4.5,0.1-9,0-13.4c-0.1-2.1,0.6-2.8,2.8-2.9c7.2-0.3,7.2-0.4,7.2,6.9c0,0.5,0,1,0,1.5
		c0,4.5,0,4.5,4.6,4.7c1.2,0.1,2.7-0.6,3.3,1.3c0.6,2.1-0.2,3.3-2.6,3.5c-5.3,0.4-5.3,0.4-5.3,5.8c0,0.5,0,1,0,1.5
		c0,7.5,0,7.4-7.7,6.9c-1.7-0.1-2.3-0.7-2.3-2.4C395.2,77.5,395.1,73,395.1,68.5z"/>
	<path class="st11" d="M108,15c0.5-0.6,1.5-2.3,1.7-0.4c0.9,8.1,0.9,16.3-4.6,23.3c-4.4,5.6-12.7,8-20,5.6
		c7.5-5.5,14.1-11.9,19.1-19.9c1.3-2.2,3.3-4.2,2.7-7.2l0,0C108,16.4,108,15.7,108,15z"/>
	<path class="st12" d="M107,16.3c0.6,2.9-1.4,5-2.7,7.2c-4.9,8-11.5,14.4-19.1,19.9c-2-12,2.1-17.9,12.8-23.3
		C100.9,18.7,104,17.6,107,16.3z"/>
	<path class="st13" d="M35.6,63.3c0.1,1.3-1,1.5-1.8,2c-3.3,1.9-6.8,3.4-9.8,5.6c-3.5,2.5-6.4,2.2-9.7-0.1
		c-3.8-2.6-7.9-4.7-11.8-7.1c-0.1-0.1-0.1-0.3-0.1-0.5c0-0.4,0.3-0.6,0.7-0.5c1,0.8,2.2,0.6,3.3,0.6C16.1,63.4,25.8,63.3,35.6,63.3z
		"/>
	<path class="st14" d="M44.3,42.4c0.4,0.2,0.5,0.7,0.1,0.7c-0.6,0.1-1.3,0.2-1.9,0.1c-5.1-1.3-10.1-2.7-15.2-4
		c-1.2-0.3-1.9-0.9-2.3-2.2c-1.4-5.2-2.9-10.4-4.4-15.6c-0.3-0.9-0.4-1.6,0.7-1.8c0.7-0.1,1.3,0.3,1.6,1c-0.1,2,1.5,2.9,2.7,4
		c4.9,5,9.9,9.9,14.9,14.8C41.6,40.5,42.5,42,44.3,42.4z"/>
	<path class="st15" d="M110.5,106.4c0.2,0.1,0.4,0.1,0.4,0.2c0.4,0.5,0.2,0.5-0.3,0.5c-5.9-0.8-11.4-3-17.2-4.3
		c-1.3-0.3-1.7-1.6-2-2.7C90,95.1,88.6,90,87.2,84.9c-0.1-0.5,0.1-1,0.8-1c0.3,0.4,0.7,0.5,1.1,0.3l0,0c0.3,1.8,1.9,2.6,3,3.7
		C98.2,94.2,104.4,100.3,110.5,106.4z"/>
	<path class="st16" d="M65.1,34.5c-1.5,0.2-1.6-1.2-2.1-1.9c-2.4-3.9-4.6-7.9-7-11.9c-0.7-1.2-1.3-2.3-0.5-3.7
		c2.9-4.9,5.9-9.9,8.9-14.8C64.4,2.1,64.6,2,64.7,2c0.1,0,0.2,0.2,0.4,0.3C65.1,13,65.1,23.8,65.1,34.5z"/>
	<path class="st17" d="M126.7,63.5c0.1,1.7-1.4,1.5-2.3,2c-4,2.3-8,4.6-11.9,6.9c-1.2,0.7-2.2,1.2-3.6,0.3
		c-4.8-2.9-9.7-5.6-14.5-8.4c-0.2-0.1-0.2-0.6-0.3-0.9C105,63.4,115.9,63.4,126.7,63.5z"/>
	<path class="st18" d="M20,107.2c-1-0.2-1.9-0.5-1.4-1.9c1.5-4.9,2.9-9.8,4.3-14.7c0.4-1.4,0.8-2.5,2.3-2.9
		c5.3-1.4,10.5-2.8,15.8-4.1c0.5-0.1,0.9,0.2,1.1,0.8c-7.5,6.6-14.3,14-21.4,21C20.2,105.8,20.2,106.6,20,107.2z"/>
	<path class="st8" d="M65.1,34.5c0-10.7,0-21.4,0-32.1c3.8,4.4,6,9.9,9.1,14.7c0.6,1,0.6,1.7,0,2.7C71,24.6,68.9,30,65.1,34.5z"/>
	<path class="st19" d="M126.7,63.5c-10.9,0-21.7,0-32.6-0.1c3.5-3.6,8.5-4.9,12.4-7.8c2.8-2.1,5.2-1.7,8,0c3.5,2.2,7.2,4.1,10.8,6.1
		C125.9,62.1,126.9,62.3,126.7,63.5z"/>
	<path class="st4" d="M35.6,63.3c-9.7,0-19.4,0.1-29.1,0.1c-1.1,0-2.3,0.3-3.3-0.6c4.8-2.8,9.6-5.6,14.4-8.3
		c0.8-0.4,1.5-1.1,2.7-0.4C25.2,57.4,30.9,59.4,35.6,63.3z"/>
	<path class="st20" d="M20,107.2c0.2-0.6,0.2-1.4,0.6-1.8c7.1-7,13.9-14.4,21.4-21c-0.3,5.8-2.6,11.1-4,16.6
		c-0.5,1.9-1.9,1.9-3.3,2.3C29.7,104.5,24.9,105.9,20,107.2z"/>
	<path class="st0" d="M44.3,42.4c-1.8-0.4-2.7-1.9-3.8-3.1c-5-4.9-9.9-9.9-14.9-14.8c-1.1-1.1-2.7-2-2.7-4
		c5.3,0.5,10.2,2.5,15.3,3.7c1.5,0.3,1.7,1.3,2,2.4C41.6,31.9,43.5,37,44.3,42.4z"/>
	<path class="st21" d="M110.5,106.4c-6.1-6.1-12.3-12.3-18.4-18.5c-1.1-1.1-2.7-1.9-3-3.7c5.5,0.2,10.5,2.5,15.8,3.7
		c0.9,0.2,1.8,0.7,2.1,1.9c1.3,5.1,2.7,10.1,4,15.2C111,105.4,110.6,106,110.5,106.4z"/>
	<path class="st21" d="M89.1,84.3c-0.4,0.2-0.8,0-1.1-0.3C88.5,83.5,88.9,83.5,89.1,84.3z"/>
	<path class="st12" d="M108,15c0,0.7-0.1,1.4-1.1,1.4C106.9,15.6,107.4,15.2,108,15z"/>
</g>
</svg>
